<mxfile host="app.diagrams.net" agent="Mozilla/5.0 (Windows NT 10.0; Win64; x64) AppleWebKit/537.36 (KHTML, like Gecko) Chrome/131.0.0.0 Safari/537.36" version="25.0.0">
  <diagram name="Page-1" id="LevmJtA8RDZ7JOlByW9l">
    <mxGraphModel dx="880" dy="468" grid="0" gridSize="10" guides="1" tooltips="1" connect="1" arrows="1" fold="1" page="1" pageScale="1" pageWidth="4681" pageHeight="3300" math="0" shadow="0">
      <root>
        <mxCell id="0" />
        <mxCell id="1" parent="0" />
        <mxCell id="jqbpAoip_JUpgx2RErfH-1" value="" style="ellipse;fillColor=strokeColor;html=1;" vertex="1" parent="1">
          <mxGeometry x="437" width="30" height="30" as="geometry" />
        </mxCell>
        <mxCell id="jqbpAoip_JUpgx2RErfH-3" value="" style="endArrow=classic;html=1;rounded=0;exitX=0;exitY=0;exitDx=0;exitDy=0;" edge="1" parent="1" source="jqbpAoip_JUpgx2RErfH-5">
          <mxGeometry width="50" height="50" relative="1" as="geometry">
            <mxPoint x="107" y="136" as="sourcePoint" />
            <mxPoint x="212" y="205" as="targetPoint" />
            <Array as="points">
              <mxPoint x="214" y="103" />
            </Array>
          </mxGeometry>
        </mxCell>
        <mxCell id="jqbpAoip_JUpgx2RErfH-5" value="&lt;font style=&quot;font-size: 10px;&quot;&gt;Display Customer Registration Page&lt;/font&gt;" style="html=1;align=center;verticalAlign=top;rounded=1;absoluteArcSize=1;arcSize=10;dashed=0;whiteSpace=wrap;" vertex="1" parent="1">
          <mxGeometry x="395" y="103" width="114" height="38" as="geometry" />
        </mxCell>
        <mxCell id="jqbpAoip_JUpgx2RErfH-6" value="" style="endArrow=classic;html=1;rounded=0;exitX=0.5;exitY=1;exitDx=0;exitDy=0;entryX=0.5;entryY=0;entryDx=0;entryDy=0;" edge="1" parent="1" source="jqbpAoip_JUpgx2RErfH-1" target="jqbpAoip_JUpgx2RErfH-5">
          <mxGeometry width="50" height="50" relative="1" as="geometry">
            <mxPoint x="443" y="46" as="sourcePoint" />
            <mxPoint x="446" y="109" as="targetPoint" />
          </mxGeometry>
        </mxCell>
        <mxCell id="jqbpAoip_JUpgx2RErfH-7" value="&lt;font style=&quot;font-size: 10px;&quot;&gt;Click Customer Registration CRR&lt;br&gt;&lt;br&gt;Display Customer Registration Page DCRP&lt;br&gt;&lt;br&gt;&lt;/font&gt;" style="text;html=1;align=center;verticalAlign=middle;whiteSpace=wrap;rounded=0;" vertex="1" parent="1">
          <mxGeometry x="465" y="52" width="198" height="30" as="geometry" />
        </mxCell>
        <mxCell id="jqbpAoip_JUpgx2RErfH-8" value="&lt;span style=&quot;font-size: 10px;&quot;&gt;Customer Details Validation&lt;/span&gt;" style="html=1;align=center;verticalAlign=top;rounded=1;absoluteArcSize=1;arcSize=10;dashed=0;whiteSpace=wrap;" vertex="1" parent="1">
          <mxGeometry x="397" y="215" width="114" height="38" as="geometry" />
        </mxCell>
        <mxCell id="jqbpAoip_JUpgx2RErfH-11" value="" style="endArrow=classic;html=1;rounded=0;exitX=0.5;exitY=1;exitDx=0;exitDy=0;entryX=0.5;entryY=0;entryDx=0;entryDy=0;" edge="1" parent="1">
          <mxGeometry width="50" height="50" relative="1" as="geometry">
            <mxPoint x="451.71" y="253" as="sourcePoint" />
            <mxPoint x="451.71" y="326" as="targetPoint" />
          </mxGeometry>
        </mxCell>
        <mxCell id="jqbpAoip_JUpgx2RErfH-12" value="" style="endArrow=classic;html=1;rounded=0;exitX=0.5;exitY=1;exitDx=0;exitDy=0;entryX=0.5;entryY=0;entryDx=0;entryDy=0;" edge="1" parent="1">
          <mxGeometry width="50" height="50" relative="1" as="geometry">
            <mxPoint x="451.5" y="141" as="sourcePoint" />
            <mxPoint x="451.5" y="214" as="targetPoint" />
          </mxGeometry>
        </mxCell>
        <mxCell id="jqbpAoip_JUpgx2RErfH-13" value="&lt;font style=&quot;font-size: 10px;&quot;&gt;Fill in Valid Customer Registration Details FVCRD&lt;br&gt;&lt;br&gt;Validate Customer Details CCD&lt;/font&gt;" style="text;html=1;align=center;verticalAlign=middle;whiteSpace=wrap;rounded=0;" vertex="1" parent="1">
          <mxGeometry x="458" y="163" width="198" height="30" as="geometry" />
        </mxCell>
        <mxCell id="jqbpAoip_JUpgx2RErfH-14" value="&lt;font style=&quot;font-size: 10px;&quot;&gt;Display Login Page&lt;/font&gt;" style="html=1;align=center;verticalAlign=top;rounded=1;absoluteArcSize=1;arcSize=10;dashed=0;whiteSpace=wrap;" vertex="1" parent="1">
          <mxGeometry x="395" y="326" width="114" height="38" as="geometry" />
        </mxCell>
        <mxCell id="jqbpAoip_JUpgx2RErfH-15" value="&lt;font style=&quot;font-size: 10px;&quot;&gt;Validation Successful VS&lt;br&gt;&lt;br&gt;Display Successful Message DSM &amp;amp; Display Login Page DLP&lt;/font&gt;" style="text;html=1;align=center;verticalAlign=middle;whiteSpace=wrap;rounded=0;" vertex="1" parent="1">
          <mxGeometry x="453" y="271" width="198" height="30" as="geometry" />
        </mxCell>
        <mxCell id="jqbpAoip_JUpgx2RErfH-17" value="" style="endArrow=classic;html=1;rounded=0;exitX=0.5;exitY=1;exitDx=0;exitDy=0;entryX=0.5;entryY=0;entryDx=0;entryDy=0;" edge="1" parent="1">
          <mxGeometry width="50" height="50" relative="1" as="geometry">
            <mxPoint x="451.71" y="364" as="sourcePoint" />
            <mxPoint x="451.71" y="437" as="targetPoint" />
          </mxGeometry>
        </mxCell>
        <mxCell id="jqbpAoip_JUpgx2RErfH-18" value="&lt;font style=&quot;font-size: 10px;&quot;&gt;Login Details Validation&lt;/font&gt;" style="html=1;align=center;verticalAlign=top;rounded=1;absoluteArcSize=1;arcSize=10;dashed=0;whiteSpace=wrap;" vertex="1" parent="1">
          <mxGeometry x="393" y="436" width="114" height="38" as="geometry" />
        </mxCell>
        <mxCell id="jqbpAoip_JUpgx2RErfH-21" value="" style="endArrow=none;html=1;rounded=0;entryX=1;entryY=0.5;entryDx=0;entryDy=0;" edge="1" parent="1">
          <mxGeometry width="50" height="50" relative="1" as="geometry">
            <mxPoint x="460" y="279.5" as="sourcePoint" />
            <mxPoint x="644" y="279.5" as="targetPoint" />
          </mxGeometry>
        </mxCell>
        <mxCell id="jqbpAoip_JUpgx2RErfH-22" value="" style="endArrow=none;html=1;rounded=0;entryX=1;entryY=0.5;entryDx=0;entryDy=0;exitX=0;exitY=0.5;exitDx=0;exitDy=0;" edge="1" parent="1">
          <mxGeometry width="50" height="50" relative="1" as="geometry">
            <mxPoint x="458" y="182" as="sourcePoint" />
            <mxPoint x="656" y="182" as="targetPoint" />
          </mxGeometry>
        </mxCell>
        <mxCell id="jqbpAoip_JUpgx2RErfH-23" value="" style="endArrow=none;html=1;rounded=0;entryX=1;entryY=0.5;entryDx=0;entryDy=0;exitX=0;exitY=0.5;exitDx=0;exitDy=0;" edge="1" parent="1">
          <mxGeometry width="50" height="50" relative="1" as="geometry">
            <mxPoint x="467" y="60" as="sourcePoint" />
            <mxPoint x="665" y="60" as="targetPoint" />
          </mxGeometry>
        </mxCell>
        <mxCell id="jqbpAoip_JUpgx2RErfH-24" value="&lt;span style=&quot;font-size: 10px;&quot;&gt;Customer Details Validation&lt;/span&gt;" style="html=1;align=center;verticalAlign=top;rounded=1;absoluteArcSize=1;arcSize=10;dashed=0;whiteSpace=wrap;" vertex="1" parent="1">
          <mxGeometry x="156" y="207" width="114" height="38" as="geometry" />
        </mxCell>
        <mxCell id="jqbpAoip_JUpgx2RErfH-25" value="&lt;font style=&quot;font-size: 10px;&quot;&gt;Leave Field Empty in Customer Registration Details LFECRD&lt;br&gt;&lt;br&gt;Validate Customer Details VCD&lt;/font&gt;" style="text;html=1;align=center;verticalAlign=middle;whiteSpace=wrap;rounded=0;" vertex="1" parent="1">
          <mxGeometry x="11" y="141" width="198" height="30" as="geometry" />
        </mxCell>
        <mxCell id="jqbpAoip_JUpgx2RErfH-26" value="" style="endArrow=none;html=1;rounded=0;entryX=1;entryY=0.5;entryDx=0;entryDy=0;exitX=0;exitY=0.5;exitDx=0;exitDy=0;" edge="1" parent="1">
          <mxGeometry width="50" height="50" relative="1" as="geometry">
            <mxPoint x="6" y="163" as="sourcePoint" />
            <mxPoint x="204" y="163" as="targetPoint" />
          </mxGeometry>
        </mxCell>
        <mxCell id="jqbpAoip_JUpgx2RErfH-27" value="" style="endArrow=classic;html=1;rounded=0;exitX=0.5;exitY=1;exitDx=0;exitDy=0;entryX=0;entryY=0.895;entryDx=0;entryDy=0;entryPerimeter=0;" edge="1" parent="1" target="jqbpAoip_JUpgx2RErfH-5">
          <mxGeometry width="50" height="50" relative="1" as="geometry">
            <mxPoint x="212.68999999999997" y="245" as="sourcePoint" />
            <mxPoint x="330" y="130" as="targetPoint" />
            <Array as="points">
              <mxPoint x="211" y="297" />
              <mxPoint x="333" y="299" />
              <mxPoint x="330" y="137" />
            </Array>
          </mxGeometry>
        </mxCell>
        <mxCell id="jqbpAoip_JUpgx2RErfH-28" value="&lt;font style=&quot;font-size: 10px;&quot;&gt;Validation Unsuccessful VU&lt;br&gt;&lt;br&gt;Display Error Message DSM &amp;amp; &lt;br&gt;Display Customer Registration Page DCRP&lt;/font&gt;" style="text;html=1;align=center;verticalAlign=middle;whiteSpace=wrap;rounded=0;" vertex="1" parent="1">
          <mxGeometry x="14" y="265" width="198" height="30" as="geometry" />
        </mxCell>
        <mxCell id="jqbpAoip_JUpgx2RErfH-19" value="&lt;font style=&quot;font-size: 10px;&quot;&gt;User Enters Valid Login Details USELD&lt;br&gt;&lt;br&gt;Validate Customer Login&amp;nbsp;&lt;/font&gt;" style="text;html=1;align=center;verticalAlign=middle;whiteSpace=wrap;rounded=0;" vertex="1" parent="1">
          <mxGeometry x="448" y="385" width="198" height="30" as="geometry" />
        </mxCell>
        <mxCell id="jqbpAoip_JUpgx2RErfH-32" value="" style="endArrow=none;html=1;rounded=0;entryX=1;entryY=0.5;entryDx=0;entryDy=0;exitX=0;exitY=0.5;exitDx=0;exitDy=0;" edge="1" parent="1">
          <mxGeometry width="50" height="50" relative="1" as="geometry">
            <mxPoint x="11" y="271" as="sourcePoint" />
            <mxPoint x="209" y="271" as="targetPoint" />
          </mxGeometry>
        </mxCell>
        <mxCell id="jqbpAoip_JUpgx2RErfH-34" value="" style="endArrow=none;html=1;rounded=0;entryX=1;entryY=0.5;entryDx=0;entryDy=0;" edge="1" parent="1">
          <mxGeometry width="50" height="50" relative="1" as="geometry">
            <mxPoint x="462" y="399.5" as="sourcePoint" />
            <mxPoint x="646" y="399.5" as="targetPoint" />
          </mxGeometry>
        </mxCell>
        <mxCell id="jqbpAoip_JUpgx2RErfH-35" value="" style="endArrow=classic;html=1;rounded=0;exitX=0.5;exitY=1;exitDx=0;exitDy=0;entryX=0.5;entryY=0;entryDx=0;entryDy=0;" edge="1" parent="1">
          <mxGeometry width="50" height="50" relative="1" as="geometry">
            <mxPoint x="453.5" y="474" as="sourcePoint" />
            <mxPoint x="453.5" y="547" as="targetPoint" />
          </mxGeometry>
        </mxCell>
        <mxCell id="jqbpAoip_JUpgx2RErfH-36" value="&lt;font style=&quot;font-size: 10px;&quot;&gt;Display Menu&lt;/font&gt;" style="html=1;align=center;verticalAlign=top;rounded=1;absoluteArcSize=1;arcSize=10;dashed=0;whiteSpace=wrap;" vertex="1" parent="1">
          <mxGeometry x="395" y="549" width="114" height="38" as="geometry" />
        </mxCell>
        <mxCell id="jqbpAoip_JUpgx2RErfH-38" value="&lt;font style=&quot;font-size: 10px;&quot;&gt;Validation Successful VS&lt;br&gt;&lt;br&gt;Display Successful Message DSM &amp;amp;&lt;br&gt;Display Menu DM&lt;br&gt;&amp;nbsp;&lt;/font&gt;" style="text;html=1;align=center;verticalAlign=middle;whiteSpace=wrap;rounded=0;" vertex="1" parent="1">
          <mxGeometry x="448" y="500" width="198" height="30" as="geometry" />
        </mxCell>
        <mxCell id="jqbpAoip_JUpgx2RErfH-39" value="" style="endArrow=none;html=1;rounded=0;entryX=1;entryY=0.5;entryDx=0;entryDy=0;" edge="1" parent="1">
          <mxGeometry width="50" height="50" relative="1" as="geometry">
            <mxPoint x="465" y="500" as="sourcePoint" />
            <mxPoint x="649" y="500" as="targetPoint" />
          </mxGeometry>
        </mxCell>
        <mxCell id="jqbpAoip_JUpgx2RErfH-40" value="" style="ellipse;html=1;shape=endState;fillColor=strokeColor;" vertex="1" parent="1">
          <mxGeometry x="437" y="659" width="30" height="30" as="geometry" />
        </mxCell>
        <mxCell id="jqbpAoip_JUpgx2RErfH-41" value="" style="endArrow=classic;html=1;rounded=0;exitX=0.5;exitY=1;exitDx=0;exitDy=0;entryX=0.5;entryY=0;entryDx=0;entryDy=0;" edge="1" parent="1">
          <mxGeometry width="50" height="50" relative="1" as="geometry">
            <mxPoint x="453" y="587" as="sourcePoint" />
            <mxPoint x="453" y="660" as="targetPoint" />
          </mxGeometry>
        </mxCell>
        <mxCell id="jqbpAoip_JUpgx2RErfH-42" value="" style="endArrow=classic;html=1;rounded=0;exitX=1;exitY=0;exitDx=0;exitDy=0;" edge="1" parent="1" source="jqbpAoip_JUpgx2RErfH-14">
          <mxGeometry width="50" height="50" relative="1" as="geometry">
            <mxPoint x="291" y="358" as="sourcePoint" />
            <mxPoint x="788" y="426" as="targetPoint" />
            <Array as="points">
              <mxPoint x="788" y="326" />
              <mxPoint x="788" y="378" />
            </Array>
          </mxGeometry>
        </mxCell>
        <mxCell id="jqbpAoip_JUpgx2RErfH-43" value="&lt;font style=&quot;font-size: 10px;&quot;&gt;Login Details Validation&lt;/font&gt;" style="html=1;align=center;verticalAlign=top;rounded=1;absoluteArcSize=1;arcSize=10;dashed=0;whiteSpace=wrap;" vertex="1" parent="1">
          <mxGeometry x="732" y="428" width="114" height="38" as="geometry" />
        </mxCell>
        <mxCell id="jqbpAoip_JUpgx2RErfH-44" value="&lt;font style=&quot;font-size: 10px;&quot;&gt;User Enters Invalid Login Details USELD&lt;br&gt;&lt;br&gt;Validate Customer Login&amp;nbsp;&lt;/font&gt;" style="text;html=1;align=center;verticalAlign=middle;whiteSpace=wrap;rounded=0;" vertex="1" parent="1">
          <mxGeometry x="790" y="367" width="198" height="30" as="geometry" />
        </mxCell>
        <mxCell id="jqbpAoip_JUpgx2RErfH-45" value="" style="endArrow=classic;html=1;rounded=0;exitX=0.5;exitY=1;exitDx=0;exitDy=0;entryX=1;entryY=0.75;entryDx=0;entryDy=0;" edge="1" parent="1" target="jqbpAoip_JUpgx2RErfH-14">
          <mxGeometry width="50" height="50" relative="1" as="geometry">
            <mxPoint x="788.5" y="466" as="sourcePoint" />
            <mxPoint x="708" y="345" as="targetPoint" />
            <Array as="points">
              <mxPoint x="789" y="548" />
              <mxPoint x="711" y="548" />
              <mxPoint x="711" y="355" />
            </Array>
          </mxGeometry>
        </mxCell>
        <mxCell id="jqbpAoip_JUpgx2RErfH-47" value="&lt;font style=&quot;font-size: 10px;&quot;&gt;Validation Unsuccessful VU&lt;br&gt;&lt;br&gt;Display Error Message DEM &amp;amp;&lt;br&gt;Display Login Page DLP&lt;br&gt;&amp;nbsp;&lt;/font&gt;" style="text;html=1;align=center;verticalAlign=middle;whiteSpace=wrap;rounded=0;" vertex="1" parent="1">
          <mxGeometry x="778" y="493" width="198" height="30" as="geometry" />
        </mxCell>
        <mxCell id="jqbpAoip_JUpgx2RErfH-49" value="" style="endArrow=none;html=1;rounded=0;entryX=1;entryY=0.5;entryDx=0;entryDy=0;" edge="1" parent="1">
          <mxGeometry width="50" height="50" relative="1" as="geometry">
            <mxPoint x="794" y="385" as="sourcePoint" />
            <mxPoint x="978" y="385" as="targetPoint" />
          </mxGeometry>
        </mxCell>
        <mxCell id="jqbpAoip_JUpgx2RErfH-50" value="" style="endArrow=none;html=1;rounded=0;" edge="1" parent="1">
          <mxGeometry width="50" height="50" relative="1" as="geometry">
            <mxPoint x="809" y="493" as="sourcePoint" />
            <mxPoint x="954" y="493" as="targetPoint" />
          </mxGeometry>
        </mxCell>
        <mxCell id="jqbpAoip_JUpgx2RErfH-51" value="" style="endArrow=classic;html=1;rounded=0;exitX=0.5;exitY=1;exitDx=0;exitDy=0;entryX=0;entryY=1;entryDx=0;entryDy=0;" edge="1" parent="1" target="jqbpAoip_JUpgx2RErfH-14">
          <mxGeometry width="50" height="50" relative="1" as="geometry">
            <mxPoint x="205.5" y="445" as="sourcePoint" />
            <mxPoint x="343" y="354" as="targetPoint" />
            <Array as="points">
              <mxPoint x="206" y="520" />
              <mxPoint x="345" y="520" />
              <mxPoint x="343" y="364" />
            </Array>
          </mxGeometry>
        </mxCell>
        <mxCell id="jqbpAoip_JUpgx2RErfH-52" value="" style="endArrow=classic;html=1;rounded=0;exitX=0;exitY=0.25;exitDx=0;exitDy=0;" edge="1" parent="1" source="jqbpAoip_JUpgx2RErfH-14">
          <mxGeometry width="50" height="50" relative="1" as="geometry">
            <mxPoint x="290" y="361" as="sourcePoint" />
            <mxPoint x="207" y="409" as="targetPoint" />
            <Array as="points">
              <mxPoint x="207" y="336" />
            </Array>
          </mxGeometry>
        </mxCell>
        <mxCell id="jqbpAoip_JUpgx2RErfH-53" value="&lt;font style=&quot;font-size: 10px;&quot;&gt;Login Details Validation&lt;/font&gt;" style="html=1;align=center;verticalAlign=top;rounded=1;absoluteArcSize=1;arcSize=10;dashed=0;whiteSpace=wrap;" vertex="1" parent="1">
          <mxGeometry x="149" y="409" width="114" height="38" as="geometry" />
        </mxCell>
        <mxCell id="jqbpAoip_JUpgx2RErfH-54" value="&lt;font style=&quot;font-size: 10px;&quot;&gt;User Enters Login Field Empty USELD&lt;br&gt;&lt;br&gt;Validate Customer Login&amp;nbsp;&lt;/font&gt;" style="text;html=1;align=center;verticalAlign=middle;whiteSpace=wrap;rounded=0;" vertex="1" parent="1">
          <mxGeometry x="11" y="359" width="198" height="30" as="geometry" />
        </mxCell>
        <mxCell id="jqbpAoip_JUpgx2RErfH-55" value="&lt;font style=&quot;font-size: 10px;&quot;&gt;Validation Unsuccessful VU&lt;br&gt;&lt;br&gt;Display Error Message DEM &amp;amp;&lt;br&gt;Display Login Page DLP&lt;br&gt;&amp;nbsp;&lt;/font&gt;" style="text;html=1;align=center;verticalAlign=middle;whiteSpace=wrap;rounded=0;" vertex="1" parent="1">
          <mxGeometry x="21" y="478" width="198" height="30" as="geometry" />
        </mxCell>
        <mxCell id="jqbpAoip_JUpgx2RErfH-56" value="" style="endArrow=none;html=1;rounded=0;entryX=1;entryY=0.5;entryDx=0;entryDy=0;exitX=0;exitY=0.5;exitDx=0;exitDy=0;" edge="1" parent="1">
          <mxGeometry width="50" height="50" relative="1" as="geometry">
            <mxPoint y="478" as="sourcePoint" />
            <mxPoint x="198" y="478" as="targetPoint" />
          </mxGeometry>
        </mxCell>
        <mxCell id="jqbpAoip_JUpgx2RErfH-57" value="" style="endArrow=none;html=1;rounded=0;entryX=1;entryY=0.5;entryDx=0;entryDy=0;exitX=0;exitY=0.5;exitDx=0;exitDy=0;" edge="1" parent="1">
          <mxGeometry width="50" height="50" relative="1" as="geometry">
            <mxPoint x="7" y="379" as="sourcePoint" />
            <mxPoint x="205" y="379" as="targetPoint" />
          </mxGeometry>
        </mxCell>
      </root>
    </mxGraphModel>
  </diagram>
</mxfile>
